# xmcd
# 
# Track frame offsets:
#     150
#     17989
#     34261
#     58391
#     68529
#     86433
#     110735
#     130931
#     168417
#     208746
#     252192
# 
# Disc length: 3977
# 
# Revision: 5
# Processed by: cddbd v1.5.2PL0 Copyright (c) Steve Scherf et al.
# Submitted via: fre:ac v1.0.31
# 
DISCID=9d0f870b
DTITLE=Marvin Gaye - Performance: North American Tour 1983
DYEAR=2002
DGENRE=R&B
TTITLE0=I Heard It Through The Grapevine
TTITLE1=Come Get To This
TTITLE2=Let's Get It On
TTITLE3=God Is Love
TTITLE4=What's Going On
TTITLE5=Inner City Blues (Make Me Wanna Holler)
TTITLE6=Joy
TTITLE7=Medley
TTITLE8=Rockin' After Midnight
TTITLE9=Distant Lover
TTITLE10=Sexual Healing
EXTD=YEAR: 2002
EXTT0=
EXTT1=
EXTT2=
EXTT3=
EXTT4=
EXTT5=
EXTT6=
EXTT7=
EXTT8=
EXTT9=
EXTT10=
PLAYORDER=
